{"title":"Attack on Titan - S01E22 1080p .MP4","uid":8895679,"size":643181329,"categoryP":"video","categoryS":"hd___tv_shows","magnet":"?xt=urn:btih:df4997fe93e0180c24148eaf5cc546bd8030825e&amp;dn=Attack+on+Titan+-+S01E22+1080p+.MP4&amp;tr=udp%3A%2F%2Ftracker.openbittorrent.com%3A80&amp;tr=udp%3A%2F%2Fopen.demonii.com%3A1337&amp;tr=udp%3A%2F%2Ftracker.coppersurfer.tk%3A6969&amp;tr=udp%3A%2F%2Fexodus.desync.com%3A6969","seeders":1,"leechers":0,"uploader":"Danimal1q2w3","files":1,"time":1378696026,"description":"Sorry it is late, been busy\n\nsource:\n &lt;a href=&quot;\nhttp://thepiratebay.se/torrent/8891967/Attack_on_Titan_%28Shingeki_no_Kyojin%29_S01E22_The_Defeated_%281920x1&quot; rel=&quot;nofollow&quot; target=&quot;_NEW&quot;&gt;\nhttp://thepiratebay.se/torrent/8891967/Attack_on_Titan_%28Shingeki_no_Kyojin%29_S01E22_The_Defeated_%281920x1&lt;/a&gt;\n\nIf you're looking for this in mkv, the above link is the best quality\n\n\nVideo\nID                                       : 1\nFormat                                   : AVC\nFormat/Info                              : Advanced Video Codec\nFormat profile                           : &lt;a class=&quot;__cf_email__&quot; href=&quot;/cdn-cgi/l/email-protection&quot; data-cfemail=&quot;4d0f2c3e28212423280d017c637e&quot;&gt;[email&amp;#160;protected]&lt;/a&gt;&lt;script cf-hash='f9e31' type=&quot;text/javascript&quot;&gt;\n/* &lt;![CDATA[ */!function(){try{var t=&quot;currentScript&quot;in document?document.currentScript:function(){for(var t=document.getElementsByTagName(&quot;script&quot;),e=t.length;e--;)if(t[e].getAttribute(&quot;cf-hash&quot;))return t[e]}();if(t&amp;&amp;t.previousSibling){var e,r,n,i,c=t.previousSibling,a=c.getAttribute(&quot;data-cfemail&quot;);if(a){for(e=&quot;&quot;,r=parseInt(a.substr(0,2),16),n=2;a.length-n;n+=2)i=parseInt(a.substr(n,2),16)^r,e+=String.fromCharCode(i);e=document.createTextNode(e),c.parentNode.replaceChild(e,c)}}}catch(u){}}();/* ]]&gt; */&lt;/script&gt;\nFormat settings, CABAC                   : No\nFormat settings, ReFrames                : 2 frames\nFormat settings, GOP                     : N=1\nCodec ID                                 : avc1\nCodec ID/Info                            : Advanced Video Coding\nDuration                                 : 24mn 6s\nBit rate mode                            : Variable\nBit rate                                 : 3 303 Kbps\nWidth                                    : 1 920 pixels\nHeight                                   : 1 088 pixels\nOriginal height                          : 1 080 pixels\nDisplay aspect ratio                     : 16:9\nOriginal display aspect ratio            : 16:9\nFrame rate mode                          : Variable\nFrame rate                               : 23.976 fps\nMinimum frame rate                       : 23.974 fps\nMaximum frame rate                       : 23.981 fps\nColor space                              : YUV\nChroma subsampling                       : 4:2:0\nBit depth                                : 8 bits\nScan type                                : Progressive\nBits/(Pixel*Frame)                       : 0.066\nStream size                              : 570 MiB (93%)\nLanguage                                 : English\nEncoded date                             : UTC 2013-09-08 23:49:47\nTagged date                              : UTC 2013-09-08 23:49:53\n\nAudio\nID                                       : 2\nFormat                                   : AAC\nFormat/Info                              : Advanced Audio Codec\nFormat profile                           : LC\nCodec ID                                 : 40\nDuration                                 : 24mn 7s\nBit rate mode                            : Variable\nBit rate                                 : 250 Kbps\nMaximum bit rate                         : 355 Kbps\nChannel(s)                               : 2 channels\nChannel positions                        : Front: L R\nSampling rate                            : 48.0 KHz\nCompression mode                         : Lossy\nStream size                              : 43.1 MiB (7%)\nLanguage                                 : English\nEncoded date                             : UTC 2013-09-08 23:49:53\nTagged date                              : UTC 2013-09-08 23:49:53\n\n","torrent":{"xt":"urn:btih:df4997fe93e0180c24148eaf5cc546bd8030825e","amp;dn":"Attack+on+Titan+-+S01E22+1080p+.MP4","amp;tr":["udp%3A%2F%2Ftracker.openbittorrent.com%3A80","udp%3A%2F%2Fopen.demonii.com%3A1337","udp%3A%2F%2Ftracker.coppersurfer.tk%3A6969","udp%3A%2F%2Fexodus.desync.com%3A6969"],"infoHash":"df4997fe93e0180c24148eaf5cc546bd8030825e","infoHashBuffer":{"type":"Buffer","data":[223,73,151,254,147,224,24,12,36,20,142,175,92,197,70,189,128,48,130,94]},"announce":[],"urlList":[]}}